<svg xmlns="http://www.w3.org/2000/svg" xmlns:xlink="http://www.w3.org/1999/xlink" version="1.1" x="0px" y="0px" viewBox="0 0 100 125" style="enable-background:new 0 0 100 100;" xml:space="preserve"><style type="text/css">
	.st0{fill:none;stroke:#000000;stroke-width:2;stroke-linecap:round;stroke-linejoin:round;stroke-miterlimit:10;}
	.st1{fill:none;stroke:#000000;stroke-width:2;stroke-miterlimit:10;}
</style><path d="M89.1,57.2h-4c-0.6,0-1,0.4-1,1V60h-2.8v-1.8c0-0.6-0.4-1-1-1h-3.5c-0.6,0-1,0.4-1,1V60H73v-1.8c0-0.6-0.4-1-1-1h-3V42.8  c0,0,0-0.1,0-0.1l1.7-9.6c0.1-0.3,0-0.6-0.2-0.8S69.9,32,69.6,32h-4.7c-0.6,0-1,0.4-1,1v2.2h-3.6V33c0-0.6-0.4-1-1-1h-5.2  c-0.6,0-1,0.4-1,1v2.2h-0.7V22.5c0.6-0.2,1.6-0.4,2.7-0.4c0,0,0,0,0,0c-0.2,0.5-0.1,1,0.2,1.3c0.5,0.5,1.5,0.7,2.9,0.7  c2.1,0,5-0.6,7.3-1.5c3.9-1.7,5.7-0.2,5.8-0.2c0.3,0.3,0.8,0.3,1.2,0.1c0.4-0.3,0.5-0.7,0.4-1.2c0-0.1-0.8-2.3-2.5-3.6  c0.4-0.2,1-0.3,1.7-0.4c0.4,0,0.7-0.3,0.9-0.7c0.1-0.4,0-0.8-0.3-1.1c-0.2-0.1-4.3-3.4-10.5-0.8c-2.2,0.9-3.2,1-3.6,1v-0.5  c0-0.3-0.2-0.6-0.4-0.8c-0.1-0.1-2.8-1.9-5.7-1v-0.9c0-0.6-0.4-1-1-1s-1,0.4-1,1v22.4h-0.9V33c0-0.6-0.4-1-1-1h-5.4  c-0.6,0-1,0.4-1,1v2.2h-3.7V33c0-0.6-0.4-1-1-1h-5.2c-0.3,0-0.6,0.1-0.8,0.4s-0.3,0.5-0.2,0.8l1.7,9.6c0,0,0,0.1,0,0.1v14.3h-3  c-0.6,0-1,0.4-1,1V60h-2.8v-1.8c0-0.6-0.4-1-1-1h-3.5c-0.6,0-1,0.4-1,1V60h-2.8v-1.8c0-0.6-0.4-1-1-1h-4c-0.6,0-1,0.4-1,1V90  c0,0.6,0.4,1,1,1H34h33.9h21.1c0.6,0,1-0.4,1-1V58.2C90.1,57.6,89.6,57.2,89.1,57.2z M62.9,16.8c2.6-1.1,4.7-0.9,6.2-0.5  c-0.9,0.4-1.4,0.9-1.6,1.2c-0.3,0.3-0.3,0.7-0.2,1c0.1,0.4,0.5,0.6,0.9,0.6c0.6,0,1.1,0.4,1.6,0.8c-1.3-0.1-2.9,0-5,0.9  c-2.4,1.1-4.9,1.4-6.4,1.4c0.2-0.2,0.3-0.4,0.3-0.7V18C59.6,18,61,17.6,62.9,16.8z M52.5,15.8c1.6-0.8,3.3-0.1,4.1,0.3v0.3  c0,0,0,0.1,0,0.1v3.8c-0.2,0-0.4,0-0.6-0.1c0,0-0.1,0-0.1,0c-1.3-0.1-2.5,0-3.3,0.2V15.8z M36.5,34v2.2c0,0.6,0.4,1,1,1h5.7  c0.6,0,1-0.4,1-1V34h3.4v2.2c0,0.6,0.4,1,1,1h5.6c0.6,0,1-0.4,1-1V34h3.2v2.2c0,0.6,0.4,1,1,1h5.6c0.6,0,1-0.4,1-1V34h2.5L67,41.8  H34.9L33.5,34H36.5z M13.9,59.2h2V61c0,0.6,0.4,1,1,1h4.8c0.6,0,1-0.4,1-1v-1.8h1.5V61c0,0.6,0.4,1,1,1H30c0.6,0,1-0.4,1-1v-1.8h2  V89H13.9V59.2z M35,58.2V43.8h31.9v14.3V89h-6.7c0-3.3-0.8-13.7-8.6-20.6c-0.4-0.3-0.9-0.3-1.3,0c-7.8,6.8-8.6,17.3-8.6,20.6H35  V58.2z M50,89h-6.3c0.1-2.8,0.7-11.2,6.3-17.4V89z M52,71.6c5.5,6.2,6.2,14.6,6.3,17.4H52V71.6z M88.1,89H68.9V59.2h2V61  c0,0.6,0.4,1,1,1h4.8c0.6,0,1-0.4,1-1v-1.8h1.5V61c0,0.6,0.4,1,1,1H85c0.6,0,1-0.4,1-1v-1.8h2V89z"/><path d="M23.4,65.4c-2,0-3.5,1.6-3.5,3.5v4.4c0,0.6,0.4,1,1,1H26c0.6,0,1-0.4,1-1V69C27,67,25.4,65.4,23.4,65.4z M25,72.3h-3.1V69  c0-0.9,0.7-1.5,1.5-1.5S25,68.1,25,69V72.3z"/><path d="M78.5,65.4c-2,0-3.5,1.6-3.5,3.5v4.4c0,0.6,0.4,1,1,1H81c0.6,0,1-0.4,1-1V69C82,67,80.5,65.4,78.5,65.4z M80,72.3H77V69  c0-0.9,0.7-1.5,1.5-1.5S80,68.1,80,69V72.3z"/><text x="0" y="115" fill="#000000" font-size="5px" font-weight="bold" font-family="'Helvetica Neue', Helvetica, Arial-Unicode, Arial, Sans-serif">Created by Made Somewhere</text><text x="0" y="120" fill="#000000" font-size="5px" font-weight="bold" font-family="'Helvetica Neue', Helvetica, Arial-Unicode, Arial, Sans-serif">from the Noun Project</text></svg>