<svg xmlns="http://www.w3.org/2000/svg" xmlns:xlink="http://www.w3.org/1999/xlink" version="1.1" x="0px" y="0px" viewBox="0 0 100 125" style="enable-background:new 0 0 100 100;" xml:space="preserve"><g><path d="M16.4,36.8c-4.9,0-8.8,3.9-8.8,8.8c0,4.9,3.9,8.8,8.8,8.8c4.9,0,8.8-3.9,8.8-8.8C25.2,40.7,21.2,36.8,16.4,36.8z"/><path d="M25,79.1l-0.4-0.3v-8.7c0-3.3,0.6-6.4,1.8-9.3c-2.6-2.4-6.1-3.9-10-3.9C8.2,57,1.4,63.7,1.4,71.9v4.7   c3.5,2.1,9,3.4,14.9,3.4C19.4,80,22.4,79.7,25,79.1z"/><path d="M83.6,54.4c4.9,0,8.8-3.9,8.8-8.8c0-4.9-3.9-8.8-8.8-8.8c-4.9,0-8.8,3.9-8.8,8.8C74.8,50.4,78.8,54.4,83.6,54.4z"/><path d="M75.4,78.8L75,79.1c2.6,0.6,5.5,1,8.6,1c5.9,0,11.4-1.3,14.9-3.4v-4.7c0-8.2-6.7-14.9-14.9-14.9c-3.8,0-7.3,1.5-10,3.9   c1.1,2.9,1.8,6,1.8,9.3V78.8z"/><path d="M36.3,30.9c0,7.6,6.2,13.7,13.7,13.7s13.7-6.2,13.7-13.7c0-7.6-6.2-13.7-13.7-13.7S36.3,23.3,36.3,30.9z"/><path d="M72.9,77.5v-7.3c0-12.6-10.3-22.9-22.9-22.9c-12.6,0-22.9,10.3-22.9,22.9v7.3c5.3,3.4,13.8,5.4,22.9,5.4   S67.6,80.8,72.9,77.5z"/></g><text x="0" y="115" fill="#000000" font-size="5px" font-weight="bold" font-family="'Helvetica Neue', Helvetica, Arial-Unicode, Arial, Sans-serif">Created by mikicon</text><text x="0" y="120" fill="#000000" font-size="5px" font-weight="bold" font-family="'Helvetica Neue', Helvetica, Arial-Unicode, Arial, Sans-serif">from the Noun Project</text></svg>