<svg xmlns:dc="http://purl.org/dc/elements/1.1/" xmlns:cc="http://creativecommons.org/ns#" xmlns:rdf="http://www.w3.org/1999/02/22-rdf-syntax-ns#" xmlns:svg="http://www.w3.org/2000/svg" xmlns="http://www.w3.org/2000/svg" xmlns:sodipodi="http://sodipodi.sourceforge.net/DTD/sodipodi-0.dtd" xmlns:inkscape="http://www.inkscape.org/namespaces/inkscape" version="1.1" x="0px" y="0px" viewBox="0 0 100 125"><g transform="translate(0,-952.36218)"><path style="color:#000000;enable-background:accumulate;" d="m 50,964.36219 c -20.98682,0 -38,17.0131 -38,38.00001 0,7.009 1.90927,13.5819 5.21875,19.2188 1.73103,-4.2587 5.13414,-8.0128 9.5625,-10.875 6.11769,-3.9542 14.26354,-6.3438 23.21875,-6.3438 8.95521,0 17.10106,2.3896 23.21875,6.3438 4.42835,2.8622 7.83147,6.6163 9.5625,10.875 C 86.09073,1015.9441 88,1009.3712 88,1002.3622 88,981.37529 70.98682,964.36219 50,964.36219 z m 0,7 c 7.70832,0 14,6.2917 14,14 0,7.70828 -6.29168,13.99998 -14,13.99998 -7.70832,0 -14,-6.2917 -14,-13.99998 0,-7.7083 6.29168,-14 14,-14 z m 0,4 c -5.54656,0 -10,4.4535 -10,10 0,5.5465 4.45344,9.99998 10,9.99998 5.54656,0 10,-4.45348 10,-9.99998 0,-5.5465 -4.45344,-10 -10,-10 z m 0,33.00001 c -8.23669,0 -15.66062,2.2162 -21.03125,5.6875 -4.95498,3.2026 -8.09983,7.3839 -8.84375,11.7813 6.95749,8.8474 17.74644,14.5312 29.875,14.5312 12.12856,0 22.91751,-5.6838 29.875,-14.5312 -0.74391,-4.3974 -3.88877,-8.5787 -8.84375,-11.7813 C 65.66061,1010.5784 58.2367,1008.3622 50,1008.3622 z" fill="#000000" stroke="none" marker="none" visibility="visible" display="inline" overflow="visible"/></g><text x="0" y="115" fill="#000000" font-size="5px" font-weight="bold" font-family="'Helvetica Neue', Helvetica, Arial-Unicode, Arial, Sans-serif">Created by unlimicon</text><text x="0" y="120" fill="#000000" font-size="5px" font-weight="bold" font-family="'Helvetica Neue', Helvetica, Arial-Unicode, Arial, Sans-serif">from the Noun Project</text></svg>